<?xml version="1.0" standalone="no"?>
<!DOCTYPE svg PUBLIC "-//W3C//DTD SVG 20010904//EN"
 "http://www.w3.org/TR/2001/REC-SVG-20010904/DTD/svg10.dtd">
<svg version="1.0" xmlns="http://www.w3.org/2000/svg"
 width="1024.000000pt" height="1024.000000pt" viewBox="0 0 1024.000000 1024.000000"
 preserveAspectRatio="xMidYMid meet">

<g transform="translate(0.000000,1024.000000) scale(0.100000,-0.100000)"
fill="#000000" stroke="none">
<path d="M0 5120 l0 -5120 5120 0 5120 0 0 5120 0 5120 -5120 0 -5120 0 0
-5120z m5640 3855 c349 -41 667 -120 972 -241 710 -281 1290 -722 1741 -1324
240 -321 463 -763 580 -1150 40 -130 87 -334 87 -374 l0 -26 -518 0 -519 0
-54 117 c-281 609 -784 1120 -1419 1438 -654 328 -1353 402 -2040 215 -381
-104 -766 -303 -1090 -564 -102 -83 -327 -302 -415 -406 -174 -205 -343 -464
-440 -675 l-55 -120 -540 -3 c-297 -1 -540 1 -540 4 0 15 43 215 56 264 94
334 199 596 345 858 189 339 406 621 685 892 322 313 593 505 1000 708 463
233 922 362 1429 402 153 13 581 4 735 -15z m-648 -1554 c9 -13 38 -33 64 -46
l47 -23 -35 -11 c-47 -15 -87 -59 -102 -112 l-14 -44 -11 43 c-14 50 -65 104
-112 119 l-34 10 30 12 c59 22 80 40 105 87 l24 47 11 -30 c5 -16 17 -39 27
-52z m783 -106 c112 -20 238 -67 344 -130 82 -49 231 -177 252 -218 l11 -20
-28 20 c-46 32 -210 112 -303 148 -197 74 -366 105 -582 106 -95 1 -147 4
-143 11 3 5 13 7 21 3 13 -4 14 -3 3 10 -12 15 -4 20 23 16 4 0 7 4 7 10 0 8
5 7 15 -1 13 -11 14 -10 8 5 -5 14 -3 17 10 12 10 -4 17 -2 17 4 0 6 7 9 15 5
8 -3 15 -1 15 4 0 30 179 38 315 15z m-1540 -51 c31 -109 89 -164 200 -190 29
-7 44 -14 35 -17 -8 -4 -41 -16 -72 -27 -79 -29 -129 -87 -159 -185 l-23 -75
-16 58 c-35 125 -82 177 -188 208 -30 9 -50 20 -45 24 4 4 34 15 66 24 76 22
130 71 157 142 11 30 20 64 20 74 0 34 8 22 25 -36z m2705 -425 c23 -26 54
-46 90 -59 31 -10 49 -21 40 -24 -8 -2 -32 -10 -52 -16 -69 -21 -105 -63 -132
-154 l-13 -41 -8 35 c-10 46 -38 101 -63 123 -11 10 -45 29 -76 41 l-56 23 43
12 c69 21 104 48 131 103 14 29 26 61 27 72 0 12 8 -1 17 -28 9 -26 32 -66 52
-87z m-1424 111 c238 -20 396 -62 619 -169 207 -99 371 -216 540 -386 353
-354 554 -832 532 -1265 -19 -366 -139 -657 -343 -832 -116 -99 -288 -172
-437 -184 -40 -3 -87 -7 -105 -9 -56 -4 -202 14 -287 36 -385 102 -688 443
-711 801 -22 334 171 578 456 578 l75 -1 -57 -31 c-81 -44 -142 -108 -185
-196 l-38 -76 0 -130 c1 -148 12 -189 84 -295 173 -255 497 -348 761 -219 78
38 192 148 233 225 61 115 81 269 53 415 -23 118 -34 133 -28 42 5 -93 -22
-220 -62 -288 -104 -178 -310 -273 -504 -232 -233 49 -380 245 -350 469 10 74
27 109 28 56 1 -103 59 -203 139 -237 44 -20 56 -21 96 -11 101 25 175 134
175 257 0 219 -168 435 -403 521 -64 23 -86 26 -207 26 -121 0 -143 -3 -211
-27 -241 -85 -394 -257 -471 -528 -7 -27 -12 -106 -13 -200 0 -193 22 -292
100 -446 71 -139 131 -222 238 -328 274 -270 688 -425 1139 -426 398 0 790
112 1101 316 117 77 187 133 382 308 159 142 164 142 126 2 -88 -319 -346
-567 -761 -729 -251 -99 -455 -137 -760 -144 -397 -9 -673 48 -995 207 -436
216 -722 577 -812 1026 -21 107 -24 348 -4 439 85 407 327 690 691 811 80 26
96 28 255 29 192 0 237 -9 383 -76 199 -92 356 -250 456 -459 25 -52 46 -90
46 -84 0 24 -51 187 -71 227 -124 245 -365 425 -679 509 -108 29 -361 36 -490
14 -213 -37 -405 -113 -586 -232 -105 -69 -278 -238 -348 -338 -97 -141 -174
-321 -213 -498 -24 -113 -24 -393 1 -528 62 -337 243 -615 523 -800 293 -194
710 -310 1116 -311 130 0 144 -2 190 -25 100 -51 254 -66 489 -49 51 4 91 5
88 2 -10 -10 -177 -65 -214 -71 -21 -4 -42 -8 -46 -11 -10 -6 -146 -32 -215
-41 -27 -3 -71 -9 -96 -13 -25 -4 -56 -4 -68 0 -11 5 -21 5 -21 1 0 -5 -31 -8
-70 -7 -38 0 -70 -2 -70 -5 0 -10 -45 -6 -52 4 -5 7 -8 6 -8 -3 0 -11 -3 -11
-15 -1 -12 10 -15 10 -15 0 0 -10 -3 -10 -15 0 -12 10 -15 10 -15 -1 0 -11 -2
-11 -10 1 -7 11 -10 11 -10 2 0 -7 -4 -10 -10 -7 -5 3 -49 8 -97 10 -122 6
-204 16 -199 24 3 4 -8 5 -25 3 -16 -2 -29 0 -29 6 0 6 -13 8 -31 5 -21 -3
-29 -1 -25 6 4 7 1 8 -8 5 -21 -8 -131 20 -246 63 -187 69 -459 220 -443 246
3 5 1 7 -5 3 -28 -17 -237 193 -329 332 -318 475 -308 1063 26 1601 277 447
646 715 1080 787 125 20 414 15 524 -10 241 -55 484 -186 661 -354 46 -45 48
-45 30 -14 -88 155 -298 322 -519 413 -299 124 -660 140 -1035 48 -372 -92
-751 -310 -1122 -645 -398 -359 -631 -824 -631 -1259 0 -218 41 -383 144 -585
198 -386 633 -765 1114 -967 92 -39 52 -35 -70 7 -509 172 -922 530 -1144 991
-74 154 -104 241 -181 539 -34 129 -72 272 -86 316 l-24 81 29 114 c37 144 70
230 130 344 172 328 404 568 819 847 92 62 228 158 302 213 242 181 345 244
513 314 185 77 372 123 565 140 129 12 138 12 278 1z m-1651 -62 c-5 -18 -4
-20 4 -8 9 13 12 13 20 1 5 -7 14 -11 19 -7 6 4 16 -3 23 -16 10 -19 9 -24 -6
-33 -42 -24 -165 -127 -222 -186 -78 -81 -165 -203 -211 -297 -23 -45 -41 -71
-49 -68 -9 4 -13 -4 -14 -22 0 -15 -3 -21 -6 -14 -2 6 -9 12 -14 12 -6 0 -8
-4 -4 -9 10 -17 -12 -21 -25 -6 -10 12 -16 13 -28 3 -14 -12 -15 -6 -9 50 9
85 50 202 99 287 46 77 145 182 223 235 39 27 187 99 203 100 2 0 0 -10 -3
-22z m3396 -604 c134 -129 246 -404 253 -617 2 -71 0 -87 -11 -83 -10 4 -11 1
-5 -10 10 -17 -6 -64 -22 -64 -5 0 -3 -7 4 -15 10 -12 10 -15 -2 -15 -8 0 -20
6 -27 13 -11 10 -11 8 -2 -10 17 -34 13 -51 -8 -26 -13 15 -20 46 -24 110 -16
212 -107 463 -244 669 -19 29 -32 58 -28 63 3 6 1 11 -6 11 -7 0 -10 3 -6 6 3
3 15 -1 27 -9 13 -9 17 -17 10 -20 -6 -3 -5 -4 2 -3 7 2 13 12 12 23 -1 31 32
21 77 -23z m-4323 -77 c18 -41 45 -62 102 -79 10 -3 1 -12 -25 -25 -47 -24
-67 -46 -85 -91 l-13 -34 -13 37 c-15 46 -36 69 -81 90 l-34 17 43 21 c31 16
49 34 63 64 11 23 21 42 22 43 1 0 11 -19 21 -43z m437 23 c3 -5 1 -10 -4 -10
-6 0 -11 5 -11 10 0 6 2 10 4 10 3 0 8 -4 11 -10z m650 -438 c-3 -3 -11 0 -18
7 -9 10 -8 11 6 5 10 -3 15 -9 12 -12z m-52 -12 c-4 -14 0 -20 11 -20 10 0 14
-5 11 -10 -4 -6 -12 -7 -18 -3 -8 5 -8 2 1 -9 10 -13 9 -15 -13 -10 -14 2 -25
9 -25 14 0 5 -5 6 -10 3 -8 -5 -7 -11 1 -21 9 -11 9 -18 1 -26 -17 -17 -15
-28 4 -21 14 5 14 3 3 -16 -8 -11 -17 -21 -21 -21 -5 0 -8 -9 -8 -19 0 -10 -7
-21 -15 -25 -13 -5 -14 -2 -5 17 11 21 11 21 -4 3 -18 -23 -20 -36 -6 -36 6 0
5 -9 -2 -22 -23 -40 -40 -58 -52 -51 -7 4 -6 1 1 -8 10 -12 9 -21 -6 -45 -10
-16 -26 -50 -36 -76 -10 -27 -22 -45 -28 -41 -6 3 -7 1 -3 -5 4 -7 -4 -42 -17
-79 -52 -145 -71 -263 -71 -458 0 -202 17 -305 79 -491 187 -563 678 -982
1314 -1124 306 -68 775 -74 1120 -13 25 4 32 3 26 -6 -4 -7 -13 -10 -21 -7 -8
3 -11 0 -8 -9 4 -9 -2 -13 -20 -11 -14 2 -26 -1 -26 -6 0 -5 -4 -6 -10 -3 -5
3 -10 1 -10 -4 0 -6 -3 -10 -7 -9 -5 1 -18 -4 -31 -11 -13 -7 -45 -19 -70 -26
-52 -16 -269 -62 -292 -63 -24 -1 -123 -13 -142 -17 -10 -2 -18 2 -19 8 0 9
-2 9 -5 0 -10 -22 -305 -15 -499 13 -61 8 -212 43 -290 65 -71 21 -216 78
-225 88 -3 3 -12 7 -20 9 -36 7 -169 76 -163 85 3 6 1 7 -5 3 -14 -8 -98 39
-94 54 1 6 -2 9 -8 5 -11 -7 -102 51 -177 112 -28 23 -40 40 -36 51 3 12 2 13
-4 5 -7 -10 -13 -10 -29 1 -10 8 -19 19 -19 25 0 6 -4 11 -10 12 -24 2 -46 22
-41 35 4 10 2 12 -6 8 -14 -9 -138 122 -228 241 -272 363 -369 774 -272 1155
61 236 169 431 360 648 61 68 91 91 78 56 -3 -9 -2 -12 5 -9 5 4 7 15 4 24 -4
12 7 27 35 50 22 17 40 27 40 21 0 -5 5 -10 11 -10 6 0 8 7 5 17 -5 13 7 31
21 33 0 0 -1 -9 -4 -20z m27 0 c0 -5 -5 -10 -11 -10 -5 0 -7 5 -4 10 3 6 8 10
11 10 2 0 4 -4 4 -10z m-30 -73 c0 -8 -6 -14 -14 -14 -8 0 -12 6 -9 14 3 7 9
13 14 13 5 0 9 -6 9 -13z m-1312 -229 c0 -7 10 -53 21 -102 12 -50 21 -92 21
-95 0 -3 -11 11 -25 31 -14 20 -25 43 -25 51 0 7 -3 17 -7 20 -10 10 -10 70
-1 90 10 20 14 22 16 5z m5847 -12 c92 -19 201 -59 300 -108 84 -42 191 -116
181 -125 -3 -3 4 -14 15 -24 12 -10 19 -25 16 -32 -3 -8 -2 -30 2 -49 4 -18 5
-42 1 -53 -4 -11 -5 -24 -2 -30 8 -12 11 -76 5 -92 -3 -6 -12 -9 -21 -6 -11 3
-13 2 -6 -4 11 -8 25 -63 17 -63 -2 0 -19 11 -36 24 -54 40 -182 104 -271 135
-116 41 -223 61 -336 64 -52 1 -98 7 -102 12 -5 6 -8 5 -8 -2 0 -7 -12 -13
-27 -13 -58 0 -247 -51 -333 -89 -106 -47 -164 -85 -244 -160 -117 -111 -215
-299 -216 -413 0 -75 -39 14 -61 139 -14 79 -7 213 16 298 8 33 37 102 62 154
120 238 365 403 668 451 82 12 295 5 380 -14z m-6402 -7 c324 -66 543 -266
627 -574 15 -55 23 -250 13 -305 l-9 -45 -32 60 c-191 357 -542 537 -952 491
-61 -7 -221 -57 -336 -104 l-52 -21 0 37 c-1 20 -1 66 -2 102 -1 36 -1 97 -1
137 l1 72 45 26 c213 125 470 171 698 124z m2212 -489 c11 -134 32 -238 70
-350 114 -325 316 -584 635 -813 14 -9 -13 1 -60 24 -122 60 -217 127 -306
217 -234 236 -364 536 -364 841 0 73 9 175 15 169 2 -2 6 -41 10 -88z m4150
-65 c144 -25 291 -94 399 -186 32 -27 56 -49 53 -49 -2 0 -29 11 -60 24 -88
39 -244 84 -350 101 -97 15 -315 21 -392 11 -95 -14 -212 -38 -244 -52 l-36
-15 25 25 c63 63 202 125 327 146 79 13 185 11 278 -5z m-6390 -15 c85 -22
202 -76 250 -116 l30 -24 -43 15 c-132 45 -386 59 -563 31 -96 -16 -295 -68
-333 -88 -46 -24 29 45 102 93 71 47 156 81 243 98 84 17 231 12 314 -9z m519
-384 c-3 -8 -1 -17 5 -21 6 -3 11 0 11 7 1 7 14 -21 29 -62 147 -386 387 -781
625 -1029 264 -273 545 -423 1055 -561 316 -86 552 -120 846 -125 574 -9 992
91 1568 376 97 48 177 86 177 84 0 -7 -226 -169 -299 -215 -266 -165 -616
-295 -966 -359 -164 -30 -239 -36 -465 -36 -324 0 -478 26 -830 140 -168 55
-451 166 -478 187 -7 6 -15 9 -18 6 -7 -7 111 -126 174 -176 30 -23 52 -42 50
-43 -29 -7 -48 -3 -46 9 2 8 -3 17 -10 19 -7 3 -10 -1 -6 -11 3 -9 1 -16 -5
-16 -6 0 -11 5 -11 11 0 8 -4 8 -12 1 -16 -13 -30 -13 -45 0 -7 5 -17 7 -22 4
-5 -4 -14 2 -20 11 -9 16 -12 16 -21 3 -9 -13 -12 -13 -20 1 -6 11 -18 15 -35
12 -17 -4 -27 0 -31 11 -3 9 -10 14 -14 11 -5 -3 -11 -1 -15 4 -3 6 -13 7 -22
4 -13 -5 -15 -2 -10 11 6 14 3 16 -14 11 -16 -5 -19 -4 -14 6 6 9 3 11 -8 6
-10 -3 -17 -2 -17 3 0 6 -7 10 -17 10 -26 0 -164 90 -157 102 4 7 2 8 -5 4
-12 -8 -117 66 -206 145 -268 240 -462 517 -590 843 -56 143 -116 370 -118
447 -1 32 -5 55 -9 52 -13 -7 -9 22 4 35 9 9 9 12 -1 12 -9 0 -10 4 -4 13 5 6
9 26 8 44 -1 18 2 30 6 27 4 -2 6 -11 3 -18z m-378 -173 c81 -267 247 -596
424 -843 111 -155 162 -215 293 -349 146 -148 240 -231 362 -317 323 -227 622
-342 955 -364 79 -5 159 -18 218 -34 302 -83 804 -98 1171 -35 522 89 999 320
1335 647 92 90 186 205 205 250 11 25 34 42 119 87 411 218 737 583 874 978
l23 67 414 0 413 0 -7 -47 c-13 -90 -83 -348 -133 -488 -192 -541 -461 -965
-871 -1376 -315 -315 -612 -529 -1001 -724 -443 -222 -839 -341 -1340 -402
-205 -25 -716 -25 -915 1 -327 42 -522 85 -783 172 -721 242 -1347 665 -1796
1214 -315 384 -525 765 -676 1220 -49 148 -110 380 -110 419 0 8 109 11 400
11 l399 0 27 -87z m5305 -604 c-13 -11 -30 -18 -37 -15 -8 3 -11 0 -8 -8 3 -7
-2 -19 -11 -26 -8 -7 -15 -9 -15 -4 0 5 -7 -2 -16 -14 -10 -15 -22 -21 -32
-17 -9 3 -13 3 -9 -1 19 -20 -147 -125 -325 -206 -147 -68 -332 -119 -507
-142 -58 -8 -107 -13 -109 -11 -2 2 34 15 80 31 46 15 160 60 253 101 94 40
229 97 300 126 72 28 198 86 280 128 152 78 201 96 156 58z"/>
<path d="M5320 8685 c0 -36 92 -721 97 -726 8 -6 154 -32 158 -27 1 2 33 58
71 126 38 68 70 118 72 110 1 -7 8 -71 15 -143 l12 -130 78 -20 77 -19 18 24
c39 54 402 612 402 618 0 7 -186 63 -206 62 -7 0 -56 -75 -110 -167 l-99 -168
-5 195 -5 195 -70 16 c-38 9 -72 15 -75 14 -3 -2 -41 -78 -85 -169 -44 -91
-83 -165 -86 -166 -3 0 -11 73 -18 163 -17 225 -7 203 -97 211 -93 7 -144 8
-144 1z"/>
<path d="M4453 8625 c-174 -54 -248 -211 -167 -352 40 -70 141 -113 263 -113
78 0 111 -10 124 -38 10 -21 8 -27 -16 -48 -23 -20 -39 -24 -90 -24 -34 1 -80
8 -102 16 -67 26 -75 24 -127 -41 l-49 -60 23 -19 c102 -83 268 -106 398 -57
72 27 111 60 145 122 64 115 28 253 -79 308 -37 19 -73 27 -155 33 -58 5 -117
12 -131 16 -32 9 -37 42 -11 67 26 23 132 23 188 0 35 -15 38 -15 53 4 8 10
34 42 58 69 l42 50 -34 21 c-92 57 -236 77 -333 46z"/>
<path d="M3951 8465 c-51 -19 -95 -36 -98 -39 -2 -2 11 -82 30 -178 20 -95 34
-174 32 -176 -1 -2 -60 57 -130 131 l-127 135 -71 -37 c-40 -20 -74 -37 -76
-38 -2 -1 20 -80 48 -175 48 -164 60 -217 43 -193 -4 6 -67 66 -140 134 l-134
124 -36 -21 c-53 -30 -152 -104 -152 -113 0 -4 37 -39 83 -78 45 -38 165 -140
267 -226 102 -87 195 -164 207 -172 19 -13 28 -11 95 23 40 20 74 37 76 39 2
2 -50 230 -64 280 -3 11 43 -29 104 -89 l109 -108 78 28 77 29 -6 50 c-3 28
-24 197 -48 378 -35 268 -45 327 -58 327 -8 -1 -57 -16 -109 -35z"/>
<path d="M6568 8283 c-331 -314 -488 -466 -488 -472 0 -6 178 -81 193 -81 5 0
34 22 64 49 l55 49 115 -54 c64 -30 117 -54 119 -54 2 0 4 -36 6 -80 l3 -81
105 -48 105 -48 6 111 c4 61 10 245 13 409 l7 298 -83 38 c-131 61 -114 63
-220 -36z m85 -281 c-3 -45 -10 -82 -15 -82 -8 0 -88 38 -97 46 -3 3 22 31 54
64 32 33 60 58 61 57 1 -1 0 -39 -3 -85z"/>
<path d="M7255 8038 c-6 -19 -141 -726 -147 -775 -2 -13 18 -37 64 -76 36 -31
71 -57 76 -57 9 0 488 262 615 336 32 19 62 34 68 34 22 0 3 23 -78 94 -87 75
-87 75 -113 59 -50 -34 -375 -221 -378 -218 -2 2 17 97 41 211 25 115 48 225
51 245 l6 36 -93 62 c-51 33 -96 61 -100 61 -4 0 -10 -6 -12 -12z"/>
<path d="M2905 7868 c-56 -47 -264 -229 -310 -270 -27 -25 -28 -28 -14 -45
140 -166 467 -540 479 -548 6 -4 45 25 86 64 42 38 130 112 195 163 65 51 118
95 118 98 1 3 -27 36 -62 74 l-62 69 -110 -91 c-61 -50 -114 -91 -120 -91 -5
0 -23 16 -40 36 -28 34 -29 36 -10 49 45 31 174 150 174 159 0 6 -23 36 -52
67 l-52 57 -97 -85 -97 -86 -33 38 c-18 20 -33 41 -33 44 0 11 176 160 202
173 21 10 20 12 -39 88 -33 44 -63 79 -67 79 -3 0 -28 -19 -56 -42z"/>
<path d="M8015 7228 c-49 -44 -168 -150 -263 -235 -95 -85 -176 -161 -179
-168 -2 -8 68 -104 158 -217 89 -112 164 -205 165 -206 1 -2 34 22 73 53 47
38 68 61 63 70 -4 7 -49 62 -101 123 -51 61 -94 112 -95 114 0 2 15 19 36 36
l36 33 83 -96 c46 -52 86 -95 89 -95 4 0 29 20 58 44 28 24 57 46 64 48 7 3
-23 44 -71 99 -46 52 -85 99 -88 106 -4 10 53 72 67 73 5 0 162 -175 186 -209
10 -13 18 -10 55 24 24 22 57 50 73 63 l29 22 -34 43 c-59 76 -303 357 -308
357 -3 0 -46 -37 -96 -82z"/>
<path d="M2303 7233 c-22 -26 -52 -64 -67 -84 l-27 -37 113 -98 c62 -54 120
-104 128 -112 13 -12 4 -13 -65 -8 -44 3 -133 8 -197 12 l-117 6 -65 -89 c-36
-48 -65 -91 -63 -95 2 -6 495 -366 548 -400 l26 -17 54 82 c30 45 55 84 57 88
1 3 -57 48 -130 100 l-133 94 40 3 c22 1 114 -1 203 -5 l164 -8 54 71 c30 39
54 73 54 76 0 6 -104 96 -350 301 -52 44 -116 100 -141 124 l-46 44 -40 -48z"/>
<path d="M1911 6344 c-26 -21 -31 -33 -31 -69 0 -74 59 -121 127 -103 44 11
73 52 73 100 0 87 -101 130 -169 72z"/>
<path d="M8329 6342 c-70 -62 -23 -177 71 -174 38 1 88 36 96 68 27 105 -87
178 -167 106z"/>
<path d="M3910 6862 c0 -7 -5 -10 -12 -6 -7 4 -8 3 -4 -5 4 -6 12 -9 17 -6 5
4 9 1 9 -6 0 -7 3 -10 6 -6 3 3 1 14 -5 24 -6 11 -11 13 -11 5z"/>
<path d="M3902 5701 c0 -17 1 -31 3 -31 7 0 12 39 5 49 -4 7 -7 -1 -8 -18z"/>
<path d="M3881 5704 c0 -11 3 -14 6 -6 3 7 2 16 -1 19 -3 4 -6 -2 -5 -13z"/>
<path d="M3840 5646 c0 -2 7 -6 15 -10 8 -3 15 -1 15 4 0 6 -7 10 -15 10 -8 0
-15 -2 -15 -4z"/>
<path d="M3810 5621 c0 -6 4 -13 10 -16 6 -3 7 1 4 9 -7 18 -14 21 -14 7z"/>
<path d="M3837 5549 c7 -7 15 -10 18 -7 3 3 -2 9 -12 12 -14 6 -15 5 -6 -5z"/>
<path d="M1388 4993 c7 -3 16 -2 19 1 4 3 -2 6 -13 5 -11 0 -14 -3 -6 -6z"/>
<path d="M2603 4455 c0 -8 4 -12 9 -9 5 3 6 10 3 15 -9 13 -12 11 -12 -6z"/>
<path d="M1854 4061 c-75 -46 -25 -169 59 -147 63 15 86 83 45 130 -32 35 -66
41 -104 17z"/>
<path d="M8463 4073 c-27 -5 -63 -48 -63 -75 0 -46 39 -87 83 -88 36 0 87 49
87 84 0 48 -55 89 -107 79z"/>
<path d="M2034 3729 l-152 -90 25 -45 c14 -24 27 -44 30 -44 2 0 24 14 49 30
l44 31 0 -39 c0 -25 -8 -49 -21 -66 -21 -27 -21 -28 -3 -61 28 -53 50 -78 62
-71 6 3 21 35 34 71 12 36 26 65 29 65 4 0 12 -7 19 -15 16 -20 44 -19 87 2
63 29 88 96 60 159 -27 63 -89 164 -100 163 -7 0 -80 -41 -163 -90z m160 -61
c24 -34 20 -67 -10 -80 -24 -11 -29 -9 -50 15 -31 36 -30 49 4 69 35 22 38 22
56 -4z"/>
<path d="M8115 3692 c-74 -46 -109 -126 -85 -197 14 -43 44 -65 88 -65 44 0
78 19 131 73 43 44 64 50 75 21 10 -26 -12 -63 -54 -90 -33 -22 -40 -32 -38
-53 3 -23 8 -26 47 -29 40 -3 47 0 85 40 72 75 82 168 26 228 -51 54 -119 38
-196 -47 l-51 -56 -19 28 -18 28 30 26 c17 14 39 31 50 37 18 11 18 13 2 40
-21 36 -35 39 -73 16z"/>
<path d="M2370 3476 c-8 -7 -69 -51 -135 -96 -66 -45 -122 -84 -124 -86 -9 -8
51 -85 64 -81 11 5 259 179 277 196 10 9 -39 81 -55 81 -7 0 -19 -6 -27 -14z"/>
<path d="M7952 3434 l-22 -35 28 -42 c46 -68 84 -138 79 -144 -3 -2 -47 17
-97 43 l-92 47 -20 -21 -21 -21 36 -79 c61 -134 59 -142 -19 -62 -37 38 -71
70 -74 70 -4 0 -19 -15 -33 -33 l-25 -34 63 -73 c35 -41 63 -75 62 -76 -1 -1
-47 13 -102 32 -55 18 -102 34 -105 34 -3 0 -17 -16 -33 -35 l-27 -34 37 -19
c51 -26 193 -77 292 -106 81 -24 82 -24 92 -4 6 11 26 37 45 58 l35 38 -30 49
c-34 55 -64 123 -55 123 3 0 44 -13 91 -30 46 -16 90 -30 96 -30 7 1 22 17 34
36 l23 35 -57 97 c-59 102 -162 252 -172 252 -3 -1 -16 -17 -29 -36z"/>
<path d="M2489 3307 c-20 -18 -81 -72 -136 -122 l-101 -90 21 -30 c42 -61 112
-138 141 -156 21 -13 50 -19 86 -19 92 0 166 63 183 157 13 69 -34 158 -147
280 -8 9 -20 4 -47 -20z m66 -154 c34 -52 33 -96 -4 -134 -40 -39 -79 -39
-126 2 -19 17 -35 38 -34 48 0 15 115 120 131 121 4 0 19 -17 33 -37z"/>
<path d="M2701 2870 l-134 -142 37 -36 38 -37 129 135 c71 74 129 137 129 140
-1 3 -15 22 -33 43 l-33 38 -133 -141z"/>
<path d="M7414 2860 c-49 -44 -91 -85 -92 -90 -4 -12 73 -108 176 -220 l69
-75 55 47 c29 25 76 66 103 91 l50 46 -32 32 -31 32 -39 -36 c-21 -19 -50 -45
-64 -56 -25 -20 -27 -20 -43 -2 -17 18 -21 41 -8 41 4 1 26 18 50 39 l43 38
-26 31 c-15 18 -30 32 -34 32 -3 0 -30 -20 -58 -45 l-52 -46 -16 25 c-16 24
-15 26 26 63 23 21 50 44 60 51 11 7 19 18 19 23 0 10 -50 58 -61 59 -4 0 -47
-36 -95 -80z"/>
<path d="M2980 2860 c-8 -10 -66 -78 -127 -150 -62 -72 -113 -135 -113 -139 0
-4 13 -20 29 -35 35 -34 43 -30 116 55 28 32 53 58 58 59 4 0 7 -57 7 -127 1
-125 1 -128 26 -146 24 -18 26 -18 45 -1 12 10 64 70 117 134 52 63 103 121
111 128 13 11 11 17 -21 48 l-36 36 -43 -47 c-24 -26 -53 -60 -64 -76 -11 -16
-23 -29 -26 -29 -4 0 -7 52 -8 116 -2 115 -11 156 -43 181 -10 8 -17 6 -28 -7z"/>
<path d="M7192 2689 c-19 -17 -32 -36 -29 -42 2 -7 25 -38 51 -69 25 -31 46
-59 46 -62 0 -9 -59 5 -146 34 l-82 28 -31 -20 c-37 -24 -38 -30 -9 -77 30
-50 188 -271 194 -271 9 0 74 45 74 52 0 4 -22 40 -49 80 -32 47 -45 74 -36
76 7 2 61 -13 121 -32 l109 -35 30 27 c16 15 32 28 34 29 2 2 -18 31 -44 65
-27 35 -80 104 -118 153 -38 50 -72 91 -75 92 -4 1 -22 -11 -40 -28z"/>
<path d="M3353 2550 c-91 -21 -154 -96 -161 -190 -4 -50 0 -66 21 -103 14 -24
43 -55 65 -70 95 -63 191 -56 268 18 24 23 44 46 44 51 0 5 -33 28 -73 51 -40
24 -82 50 -94 59 -21 15 -22 14 -37 -15 -22 -42 -21 -46 19 -71 42 -26 37 -40
-12 -40 -27 0 -43 8 -69 34 -47 47 -47 92 0 144 29 31 40 37 75 36 49 -2 90
-26 104 -64 9 -25 17 -29 59 -32 54 -3 57 1 32 60 -39 93 -149 154 -241 132z"/>
<path d="M6627 2357 c-112 -49 -118 -53 -112 -77 7 -28 120 -297 134 -320 8
-12 29 -6 131 35 67 27 124 53 127 58 3 5 -3 26 -12 47 l-17 38 -81 -34 c-62
-27 -82 -32 -89 -22 -16 27 -6 40 52 66 60 26 61 28 56 61 -8 56 -19 59 -91
23 -36 -18 -67 -32 -69 -32 -2 0 -9 13 -14 29 -11 32 -18 27 125 87 l32 14
-17 40 c-9 22 -21 40 -27 40 -5 -1 -63 -24 -128 -53z"/>
<path d="M3871 2279 c-13 -17 -21 -32 -19 -34 1 -1 27 -14 56 -29 28 -14 52
-33 52 -41 0 -8 -18 -65 -40 -126 -22 -62 -40 -118 -40 -125 0 -7 20 -19 45
-27 54 -19 47 -28 100 133 21 63 39 116 40 118 2 2 27 -4 56 -12 29 -9 56 -16
61 -16 7 0 41 71 36 75 -2 1 -28 10 -58 20 -30 10 -99 35 -153 56 -53 22 -101
39 -105 39 -5 0 -18 -14 -31 -31z"/>
<path d="M6394 2264 c-41 -15 -42 -15 -48 -77 -4 -34 -12 -90 -18 -125 -10
-62 -11 -63 -30 -45 -11 10 -50 55 -86 101 -70 88 -62 85 -140 58 l-33 -11
117 -140 c64 -77 127 -152 139 -167 21 -25 25 -26 61 -16 22 7 40 12 41 12 1
1 60 351 65 394 5 37 -3 39 -68 16z"/>
<path d="M4280 2176 c0 -2 -18 -83 -40 -180 -22 -96 -40 -179 -40 -184 0 -5
12 -12 28 -16 15 -3 37 -8 49 -12 19 -5 22 0 33 53 20 100 10 92 93 73 80 -19
78 -15 63 -116 l-7 -51 48 -6 c26 -3 49 -4 50 -3 6 5 63 369 59 373 -3 3 -25
8 -49 10 l-44 5 -14 -66 c-7 -36 -18 -66 -24 -66 -6 0 -38 5 -70 12 l-57 11 6
46 c3 25 9 58 12 72 5 24 2 27 -40 38 -49 12 -56 13 -56 7z"/>
<path d="M5922 2143 c-30 -6 -34 -14 -85 -208 -61 -231 -58 -215 -39 -215 41
0 92 14 92 24 1 26 21 38 96 56 79 19 79 19 96 -1 15 -17 24 -19 63 -14 25 4
47 11 50 15 2 4 -43 74 -101 156 -59 82 -111 159 -117 172 -10 22 -13 23 -55
15z m63 -194 c30 -46 26 -54 -27 -64 l-36 -7 10 44 c13 57 17 68 21 68 3 0 17
-19 32 -41z"/>
<path d="M5765 2114 c-5 -1 -27 -5 -47 -9 -23 -3 -39 -12 -41 -23 -23 -85 -62
-209 -67 -215 -7 -8 -70 151 -70 177 0 29 -24 45 -59 38 -31 -7 -35 -12 -48
-62 -26 -104 -44 -160 -51 -160 -4 0 -25 48 -47 108 l-40 107 -49 -2 c-27 -2
-51 -5 -54 -8 -5 -4 13 -50 100 -262 l50 -123 44 0 c27 0 46 5 49 13 2 6 14
45 25 84 12 40 25 71 28 69 4 -2 21 -39 37 -81 l30 -77 48 5 c26 2 50 7 53 10
10 10 83 227 105 311 21 80 22 105 4 100z"/>
<path d="M4717 2038 c-17 -145 -29 -319 -24 -325 8 -7 259 -31 270 -26 4 2 7
24 7 48 l0 43 -85 7 -85 7 0 30 0 29 78 -3 77 -3 3 43 3 42 -38 0 c-21 0 -55
3 -75 6 -32 6 -38 10 -38 32 l0 25 90 -7 90 -7 0 45 c0 44 -1 44 -37 50 -21 3
-81 8 -134 11 l-96 7 -6 -54z"/>
</g>
</svg>
